<svg width="167" height="44" viewBox="0 0 167 44" fill="none" xmlns="http://www.w3.org/2000/svg">
<g clip-path="url(#clip0_2405_56)">
<path d="M158 1H9C4.58172 1 1 4.58172 1 9V35C1 39.4183 4.58172 43 9 43H158C162.418 43 166 39.4183 166 35V9C166 4.58172 162.418 1 158 1Z" fill="white" stroke="#9AA0A6" stroke-width="0.5"/>
<g clip-path="url(#clip1_2405_56)">
<path d="M22 36C29.732 36 36 29.732 36 22C36 14.268 29.732 8 22 8C14.268 8 8 14.268 8 22C8 29.732 14.268 36 22 36Z" fill="#039BE5"/>
<path d="M14.406 21.6967L27.9043 16.4922C28.5308 16.2658 29.078 16.645 28.875 17.5923L28.8761 17.5912L26.5778 28.419C26.4075 29.1867 25.9513 29.3733 25.3132 29.0117L21.8132 26.4322L20.125 28.0585C19.9383 28.2452 19.7808 28.4027 19.4192 28.4027L19.6677 24.8408L26.1543 18.9807C26.4367 18.7322 26.0913 18.5922 25.7192 18.8395L17.703 23.8865L14.2473 22.8085C13.4972 22.5705 13.4808 22.0583 14.406 21.6967Z" fill="white"/>
</g>
<path d="M112.43 32H109.969V27.4375C109.969 26.276 109.542 25.6953 108.688 25.6953C108.281 25.6953 107.951 25.8698 107.695 26.2188C107.44 26.5677 107.312 27.0026 107.312 27.5234V32H104.844V27.3906C104.844 26.2604 104.424 25.6953 103.586 25.6953C103.164 25.6953 102.826 25.862 102.57 26.1953C102.32 26.5286 102.195 26.9818 102.195 27.5547V32H99.7266V24H102.195V25.25H102.227C102.482 24.8229 102.839 24.4766 103.297 24.2109C103.76 23.9401 104.266 23.8047 104.812 23.8047C105.943 23.8047 106.716 24.3021 107.133 25.2969C107.742 24.3021 108.638 23.8047 109.82 23.8047C111.56 23.8047 112.43 24.8776 112.43 27.0234V32Z" fill="#039BE5"/>
<path d="M97.7734 32H95.4375V30.8516H95.4062C94.8698 31.7474 94.0755 32.1953 93.0234 32.1953C92.2474 32.1953 91.6354 31.9766 91.1875 31.5391C90.7448 31.0964 90.5234 30.5078 90.5234 29.7734C90.5234 28.2214 91.4427 27.3255 93.2812 27.0859L95.4531 26.7969C95.4531 25.9219 94.9792 25.4844 94.0312 25.4844C93.0781 25.4844 92.1719 25.7682 91.3125 26.3359V24.4766C91.6562 24.2995 92.125 24.1432 92.7188 24.0078C93.3177 23.8724 93.862 23.8047 94.3516 23.8047C96.6328 23.8047 97.7734 24.9427 97.7734 27.2188V32ZM95.4531 28.75V28.2109L94 28.3984C93.1979 28.5026 92.7969 28.8646 92.7969 29.4844C92.7969 29.7656 92.8932 29.9974 93.0859 30.1797C93.2839 30.3568 93.5495 30.4453 93.8828 30.4453C94.3464 30.4453 94.724 30.2865 95.0156 29.9688C95.3073 29.6458 95.4531 29.2396 95.4531 28.75Z" fill="#039BE5"/>
<path d="M89.9609 26.2266C89.6641 26.0651 89.3177 25.9844 88.9219 25.9844C88.3854 25.9844 87.9661 26.1823 87.6641 26.5781C87.362 26.9688 87.2109 27.5026 87.2109 28.1797V32H84.7422V24H87.2109V25.4844H87.2422C87.6328 24.401 88.3359 23.8594 89.3516 23.8594C89.612 23.8594 89.8151 23.8906 89.9609 23.9531V26.2266Z" fill="#039BE5"/>
<path d="M82.6797 31.0859C82.6797 32.5703 82.25 33.7188 81.3906 34.5312C80.5312 35.349 79.2865 35.7578 77.6562 35.7578C76.5781 35.7578 75.724 35.6042 75.0938 35.2969V33.2188C75.9167 33.6979 76.7474 33.9375 77.5859 33.9375C78.4193 33.9375 79.0651 33.7161 79.5234 33.2734C79.9818 32.8359 80.2109 32.2396 80.2109 31.4844V30.8516H80.1797C79.6172 31.7474 78.7865 32.1953 77.6875 32.1953C76.6667 32.1953 75.8568 31.8359 75.2578 31.1172C74.6589 30.3984 74.3594 29.4349 74.3594 28.2266C74.3594 26.8724 74.6927 25.7969 75.3594 25C76.026 24.2031 76.9036 23.8047 77.9922 23.8047C78.9661 23.8047 79.6953 24.1797 80.1797 24.9297H80.2109V24H82.6797V31.0859ZM80.2422 28.1562V27.5234C80.2422 27.0182 80.0911 26.5885 79.7891 26.2344C79.4922 25.875 79.1042 25.6953 78.625 25.6953C78.0781 25.6953 77.6484 25.9089 77.3359 26.3359C77.0234 26.763 76.8672 27.3646 76.8672 28.1406C76.8672 28.8073 77.0156 29.3359 77.3125 29.7266C77.6094 30.112 78.0156 30.3047 78.5312 30.3047C79.0417 30.3047 79.4531 30.1094 79.7656 29.7188C80.0833 29.3229 80.2422 28.8021 80.2422 28.1562Z" fill="#039BE5"/>
<path d="M73.3672 28.7031H68.1484C68.2318 29.8646 68.9635 30.4453 70.3438 30.4453C71.224 30.4453 71.9974 30.237 72.6641 29.8203V31.6016C71.9245 31.9974 70.9635 32.1953 69.7812 32.1953C68.4896 32.1953 67.487 31.8385 66.7734 31.125C66.0599 30.4062 65.7031 29.4062 65.7031 28.125C65.7031 26.7969 66.0885 25.7448 66.8594 24.9688C67.6302 24.1927 68.5781 23.8047 69.7031 23.8047C70.8698 23.8047 71.7708 24.151 72.4062 24.8438C73.0469 25.5365 73.3672 26.4766 73.3672 27.6641V28.7031ZM71.0781 27.1875C71.0781 26.0417 70.6146 25.4688 69.6875 25.4688C69.2917 25.4688 68.9479 25.6328 68.6562 25.9609C68.3698 26.2891 68.1953 26.6979 68.1328 27.1875H71.0781Z" fill="#039BE5"/>
<path d="M64.1016 32H61.6328V20.1562H64.1016V32Z" fill="#039BE5"/>
<path d="M60.1641 28.7031H54.9453C55.0286 29.8646 55.7604 30.4453 57.1406 30.4453C58.0208 30.4453 58.7943 30.237 59.4609 29.8203V31.6016C58.7214 31.9974 57.7604 32.1953 56.5781 32.1953C55.2865 32.1953 54.2839 31.8385 53.5703 31.125C52.8568 30.4062 52.5 29.4062 52.5 28.125C52.5 26.7969 52.8854 25.7448 53.6562 24.9688C54.4271 24.1927 55.375 23.8047 56.5 23.8047C57.6667 23.8047 58.5677 24.151 59.2031 24.8438C59.8438 25.5365 60.1641 26.4766 60.1641 27.6641V28.7031ZM57.875 27.1875C57.875 26.0417 57.4115 25.4688 56.4844 25.4688C56.0885 25.4688 55.7448 25.6328 55.4531 25.9609C55.1667 26.2891 54.9922 26.6979 54.9297 27.1875H57.875Z" fill="#039BE5"/>
<path d="M53.1484 22.8516H49.9531V32H47.4219V22.8516H44.2422V20.7969H53.1484V22.8516Z" fill="#039BE5"/>
<path d="M48.958 15.4111H45.2363V9.44434H46.1626V14.559H48.958V15.4111Z" fill="#5F6368"/>
<path d="M50.0347 9.57672C50.0347 9.26622 50.2788 9.03082 50.6094 9.03082C50.9405 9.03082 51.1841 9.26622 51.1841 9.57672C51.1841 9.88242 50.9404 10.1182 50.6094 10.1182C50.2788 10.1182 50.0347 9.88232 50.0347 9.57672ZM50.167 10.9082H51.0518V15.4111H50.167V10.9082Z" fill="#5F6368"/>
<path d="M54.131 10.8214C55.1442 10.8214 55.8058 11.2925 55.8922 12.0864H55.0406C54.9576 11.7558 54.6353 11.545 54.1309 11.545C53.6343 11.545 53.2583 11.7804 53.2583 12.1319C53.2583 12.4009 53.4858 12.5704 53.9736 12.6822L54.7221 12.8555C55.5781 13.0542 55.9789 13.4224 55.9789 14.084C55.9789 14.9317 55.1893 15.498 54.1142 15.498C53.0429 15.498 52.3442 15.0142 52.2656 14.2164H53.1548C53.2666 14.5636 53.5972 14.7783 54.1348 14.7783C54.689 14.7783 55.0821 14.5303 55.0821 14.1704C55.0821 13.9018 54.8712 13.728 54.42 13.6206L53.6344 13.4385C52.7784 13.2359 52.3815 12.8516 52.3815 12.1817C52.3815 11.3833 53.1134 10.8214 54.131 10.8214Z" fill="#5F6368"/>
<path d="M58.3462 9.78711V10.9287H59.3218V11.6772H58.3462V13.9926C58.3462 14.4643 58.5405 14.6708 58.9829 14.6708C59.1191 14.6708 59.1977 14.6625 59.3218 14.6503V15.3905C59.1773 15.4149 59.0117 15.4359 58.8379 15.4359C57.8496 15.4359 57.457 15.0882 57.457 14.2201V11.6771H56.7417V10.9286H57.457V9.78711H58.3462Z" fill="#5F6368"/>
<path d="M64.2535 14.1954C64.0509 15.002 63.3311 15.498 62.3018 15.498C61.0113 15.498 60.2217 14.6133 60.2217 13.1739C60.2217 11.7349 61.0279 10.8214 62.2974 10.8214C63.5503 10.8214 64.3072 11.6774 64.3072 13.0914V13.4015H61.127V13.4513C61.1563 14.2409 61.6153 14.7413 62.3262 14.7413C62.8638 14.7413 63.232 14.547 63.3975 14.1954H64.2535ZM61.1271 12.7442H63.4015C63.381 12.0372 62.9508 11.5776 62.2936 11.5776C61.6359 11.5776 61.1769 12.0411 61.1271 12.7442Z" fill="#5F6368"/>
<path d="M65.4995 10.9083H66.3555V11.6236H66.4219C66.6407 11.1231 67.0874 10.8214 67.7657 10.8214C68.7706 10.8214 69.3248 11.4249 69.3248 12.4962V15.4111H68.4356V12.7193C68.4356 11.9957 68.1211 11.6357 67.4639 11.6357C66.8062 11.6357 66.3887 12.0743 66.3887 12.7769V15.4111H65.4995V10.9083Z" fill="#5F6368"/>
<path d="M72.9185 13.1578C72.9185 11.7061 73.729 10.8214 75.044 10.8214C76.3545 10.8214 77.1651 11.7062 77.1651 13.1578C77.1651 14.6173 76.3589 15.498 75.044 15.498C73.7246 15.498 72.9185 14.6173 72.9185 13.1578ZM76.2515 13.1578C76.2515 12.1817 75.813 11.6108 75.044 11.6108C74.2706 11.6108 73.8365 12.1817 73.8365 13.1578C73.8365 14.1417 74.2706 14.708 75.044 14.708C75.813 14.708 76.2515 14.1378 76.2515 13.1578Z" fill="#5F6368"/>
<path d="M78.3574 10.9083H79.2134V11.6236H79.2798C79.499 11.1231 79.9453 10.8214 80.6236 10.8214C81.6285 10.8214 82.1827 11.4249 82.1827 12.4962V15.4111H81.2935V12.7193C81.2935 11.9957 80.979 11.6357 80.3218 11.6357C79.6641 11.6357 79.2466 12.0743 79.2466 12.7769V15.4111H78.3574V10.9083Z" fill="#5F6368"/>
</g>
<defs>
<clipPath id="clip0_2405_56">
<rect width="167" height="44" fill="white"/>
</clipPath>
<clipPath id="clip1_2405_56">
<rect width="28" height="28" fill="white" transform="translate(8 8)"/>
</clipPath>
</defs>
</svg>
